# MagicaVoxel @ Ephtracy

# group
o 

# material
mtllib key.mtl
usemtl palette

# normals
vn -1 0 0
vn 1 0 0
vn 0 0 1
vn 0 0 -1
vn 0 -1 0
vn 0 1 0

# texcoords
vt 0.0136719 0.5
vt 0.0371094 0.5
vt 0.841797 0.5

# verts
v -0.3 1.1 0.1
v -0.3 1.1 0
v -0.3 1.6 0.1
v -0.3 1.6 0
v -0.2 1 0.1
v -0.2 1 0
v -0.2 1.1 0.1
v -0.2 1.1 0
v -0.1 0 0.1
v -0.1 0 0
v -0.1 1 0.1
v -0.1 1 0
v 0.1 0.1 0.1
v 0.1 0.1 0
v 0.1 0.2 0.1
v 0.1 0.2 0
v 0.1 0.3 0.1
v 0.1 0.3 0
v 0.1 0.4 0.1
v 0.1 0.4 0
v 0.1 0.5 0.1
v 0.1 0.5 0
v 0.1 1 0.1
v 0.1 1 0
v 0.2 1 0.1
v 0.2 1 0
v 0.2 1.1 0.1
v 0.2 1.1 0
v 0.3 0.2 0.1
v 0.3 0.2 0
v 0.3 0.3 0.1
v 0.3 0.3 0
v 0.3 1.1 0.1
v 0.3 1.1 0
v 0.3 1.6 0.1
v 0.3 1.6 0
v 0.4 0 0.1
v 0.4 0 0
v 0.4 0.1 0.1
v 0.4 0.1 0
v 0.4 0.4 0.1
v 0.4 0.4 0
v 0.4 0.5 0.1
v 0.4 0.5 0
v -0.3 1.1 0.1
v -0.3 1.6 0.1
v -0.2 1 0.1
v -0.2 1.1 0.1
v -0.2 1.2 0.1
v -0.2 1.5 0.1
v -0.1 0 0.1
v -0.1 1 0.1
v -0.1 1.1 0.1
v -0.1 1.2 0.1
v -0.1 1.4 0.1
v 0.1 0.1 0.1
v 0.1 0.2 0.1
v 0.1 0.3 0.1
v 0.1 0.4 0.1
v 0.1 0.5 0.1
v 0.1 1 0.1
v 0.1 1.1 0.1
v 0.1 1.2 0.1
v 0.1 1.4 0.1
v 0.2 1 0.1
v 0.2 1.1 0.1
v 0.2 1.2 0.1
v 0.2 1.5 0.1
v 0.3 0.2 0.1
v 0.3 0.3 0.1
v 0.3 1.1 0.1
v 0.3 1.6 0.1
v 0.4 0 0.1
v 0.4 0.1 0.1
v 0.4 0.4 0.1
v 0.4 0.5 0.1
v -0.3 1.1 0
v -0.3 1.6 0
v -0.2 1 0
v -0.2 1.1 0
v -0.2 1.2 0
v -0.2 1.5 0
v -0.1 0 0
v -0.1 1 0
v -0.1 1.1 0
v -0.1 1.2 0
v -0.1 1.4 0
v 0.1 0.1 0
v 0.1 0.2 0
v 0.1 0.3 0
v 0.1 0.4 0
v 0.1 0.5 0
v 0.1 1 0
v 0.1 1.1 0
v 0.1 1.2 0
v 0.1 1.4 0
v 0.2 1 0
v 0.2 1.1 0
v 0.2 1.2 0
v 0.2 1.5 0
v 0.3 0.2 0
v 0.3 0.3 0
v 0.3 1.1 0
v 0.3 1.6 0
v 0.4 0 0
v 0.4 0.1 0
v 0.4 0.4 0
v 0.4 0.5 0
v -0.1 0 0.1
v 0.4 0 0.1
v -0.1 0 0
v 0.4 0 0
v 0.1 0.2 0.1
v 0.3 0.2 0.1
v 0.1 0.2 0
v 0.3 0.2 0
v 0.1 0.4 0.1
v 0.4 0.4 0.1
v 0.1 0.4 0
v 0.4 0.4 0
v -0.2 1 0.1
v -0.1 1 0.1
v 0.1 1 0.1
v 0.2 1 0.1
v -0.2 1 0
v -0.1 1 0
v 0.1 1 0
v 0.2 1 0
v -0.3 1.1 0.1
v -0.2 1.1 0.1
v 0.2 1.1 0.1
v 0.3 1.1 0.1
v -0.3 1.1 0
v -0.2 1.1 0
v 0.2 1.1 0
v 0.3 1.1 0
v 0.1 0.1 0.1
v 0.4 0.1 0.1
v 0.1 0.1 0
v 0.4 0.1 0
v 0.1 0.3 0.1
v 0.3 0.3 0.1
v 0.1 0.3 0
v 0.3 0.3 0
v 0.1 0.5 0.1
v 0.4 0.5 0.1
v 0.1 0.5 0
v 0.4 0.5 0
v -0.3 1.6 0.1
v 0.3 1.6 0.1
v -0.3 1.6 0
v 0.3 1.6 0

# faces
f 3/2/1 2/2/1 1/2/1
f 4/2/1 2/2/1 3/2/1
f 7/2/1 6/2/1 5/2/1
f 8/2/1 6/2/1 7/2/1
f 11/2/1 10/2/1 9/2/1
f 12/2/1 10/2/1 11/2/1
f 13/2/2 14/2/2 15/2/2
f 15/2/2 14/2/2 16/2/2
f 17/2/2 18/2/2 19/2/2
f 19/2/2 18/2/2 20/2/2
f 21/2/2 22/2/2 23/2/2
f 23/2/2 22/2/2 24/2/2
f 25/2/2 26/2/2 27/2/2
f 27/2/2 26/2/2 28/2/2
f 29/2/2 30/2/2 31/2/2
f 31/2/2 30/2/2 32/2/2
f 33/2/2 34/2/2 35/2/2
f 35/2/2 34/2/2 36/2/2
f 37/2/2 38/2/2 39/2/2
f 39/2/2 38/2/2 40/2/2
f 41/2/2 42/2/2 43/2/2
f 43/2/2 42/2/2 44/2/2
f 48/2/3 46/2/3 45/2/3
f 49/2/3 46/2/3 48/2/3
f 50/2/3 46/2/3 49/2/3
f 52/2/3 48/2/3 47/2/3
f 52/2/3 49/2/3 48/2/3
f 53/2/3 49/2/3 52/2/3
f 54/1/3 50/1/3 49/1/3
f 54/2/3 49/2/3 53/2/3
f 55/1/3 50/1/3 54/1/3
f 56/2/3 53/2/3 52/2/3
f 56/2/3 52/2/3 51/2/3
f 57/2/3 53/2/3 56/2/3
f 58/2/3 53/2/3 57/2/3
f 59/2/3 53/2/3 58/2/3
f 60/2/3 53/2/3 59/2/3
f 61/2/3 53/2/3 60/2/3
f 62/1/3 54/1/3 53/1/3
f 62/2/3 53/2/3 61/2/3
f 63/3/3 55/3/3 54/3/3
f 63/1/3 54/1/3 62/1/3
f 64/1/3 50/1/3 55/1/3
f 64/3/3 55/3/3 63/3/3
f 65/2/3 63/2/3 62/2/3
f 65/2/3 62/2/3 61/2/3
f 66/2/3 63/2/3 65/2/3
f 67/1/3 64/1/3 63/1/3
f 67/2/3 63/2/3 66/2/3
f 68/2/3 46/2/3 50/2/3
f 68/1/3 64/1/3 67/1/3
f 68/1/3 50/1/3 64/1/3
f 69/2/3 58/2/3 57/2/3
f 70/2/3 58/2/3 69/2/3
f 71/2/3 67/2/3 66/2/3
f 71/2/3 68/2/3 67/2/3
f 72/2/3 46/2/3 68/2/3
f 72/2/3 68/2/3 71/2/3
f 73/2/3 56/2/3 51/2/3
f 74/2/3 56/2/3 73/2/3
f 75/2/3 60/2/3 59/2/3
f 76/2/3 60/2/3 75/2/3
f 77/2/4 78/2/4 80/2/4
f 80/2/4 78/2/4 81/2/4
f 81/2/4 78/2/4 82/2/4
f 79/2/4 80/2/4 84/2/4
f 80/2/4 81/2/4 84/2/4
f 84/2/4 81/2/4 85/2/4
f 81/1/4 82/1/4 86/1/4
f 85/2/4 81/2/4 86/2/4
f 86/1/4 82/1/4 87/1/4
f 84/2/4 85/2/4 88/2/4
f 83/2/4 84/2/4 88/2/4
f 88/2/4 85/2/4 89/2/4
f 89/2/4 85/2/4 90/2/4
f 90/2/4 85/2/4 91/2/4
f 91/2/4 85/2/4 92/2/4
f 92/2/4 85/2/4 93/2/4
f 85/1/4 86/1/4 94/1/4
f 93/2/4 85/2/4 94/2/4
f 86/3/4 87/3/4 95/3/4
f 94/1/4 86/1/4 95/1/4
f 87/1/4 82/1/4 96/1/4
f 95/3/4 87/3/4 96/3/4
f 94/2/4 95/2/4 97/2/4
f 93/2/4 94/2/4 97/2/4
f 97/2/4 95/2/4 98/2/4
f 95/1/4 96/1/4 99/1/4
f 98/2/4 95/2/4 99/2/4
f 82/2/4 78/2/4 100/2/4
f 99/1/4 96/1/4 100/1/4
f 96/1/4 82/1/4 100/1/4
f 89/2/4 90/2/4 101/2/4
f 101/2/4 90/2/4 102/2/4
f 98/2/4 99/2/4 103/2/4
f 99/2/4 100/2/4 103/2/4
f 100/2/4 78/2/4 104/2/4
f 103/2/4 100/2/4 104/2/4
f 83/2/4 88/2/4 105/2/4
f 105/2/4 88/2/4 106/2/4
f 91/2/4 92/2/4 107/2/4
f 107/2/4 92/2/4 108/2/4
f 111/2/5 110/2/5 109/2/5
f 112/2/5 110/2/5 111/2/5
f 115/2/5 114/2/5 113/2/5
f 116/2/5 114/2/5 115/2/5
f 119/2/5 118/2/5 117/2/5
f 120/2/5 118/2/5 119/2/5
f 125/2/5 122/2/5 121/2/5
f 126/2/5 122/2/5 125/2/5
f 127/2/5 124/2/5 123/2/5
f 128/2/5 124/2/5 127/2/5
f 133/2/5 130/2/5 129/2/5
f 134/2/5 130/2/5 133/2/5
f 135/2/5 132/2/5 131/2/5
f 136/2/5 132/2/5 135/2/5
f 137/2/6 138/2/6 139/2/6
f 139/2/6 138/2/6 140/2/6
f 141/2/6 142/2/6 143/2/6
f 143/2/6 142/2/6 144/2/6
f 145/2/6 146/2/6 147/2/6
f 147/2/6 146/2/6 148/2/6
f 149/2/6 150/2/6 151/2/6
f 151/2/6 150/2/6 152/2/6
